<?xml version="1.0" encoding="UTF-8"?>
<svg id="Layer_1" data-name="Layer 1" xmlns="http://www.w3.org/2000/svg" xmlns:xlink="http://www.w3.org/1999/xlink" viewBox="0 0 810 230">
  <defs>
    <linearGradient id="linear-gradient" x1="59.8" y1="220.53" x2="59.8" y2="56.47" gradientUnits="userSpaceOnUse">
      <stop offset="0" stop-color="#002f3c"/>
      <stop offset=".21" stop-color="#063545"/>
      <stop offset=".57" stop-color="#17485e"/>
      <stop offset=".99" stop-color="#316586"/>
    </linearGradient>
  </defs>
  <g id="Elqgvs.tif">
    <g>
      <path d="M15.35,188.84c5.35.57,39.25.4,40.76,2.18.65.77.26,4.37,1.32,5.65l5.85.12c-.67-3.36-2.42-12.43,1-14.49,1.53-.93,12.74,4.27,15.98,2.55,1.88-8.59,3.47-20.74,6.49-28.85,1.87-5,7.19-7.86,9.4-12.58.24-2.69-5.4-2.39-7.34-5.37-1.71-2.63-1.75-7.97-2.82-9.63-.39-.61-2.06-.86-2.71-1.73-4.8-6.49-2.56-13.34-6.56-19.37-2.37-3.57-7.82-5.75-10.48-9.46-1.08-1.51-.69-3.62-1.96-5.01-1.1-1.21-5.7-2.38-6.7-3.77-1.09-1.52-.52-4.05-2.34-6.13-1.62-1.84-5.69-2.73-7.39-4.57-2.7-2.93-6.3-14.53-7.63-18.76-5.4,1.08-11.05-2.44-13.45-7.08-1.49-2.88,5.53-8.29,4.55-11.91h-14.98v-17.91h86.89l1,186.02-88.89-1v-18.9Z" fill="url(#linear-gradient)"/>
      <path d="M505.22,26.69c17.85,1.72,29.15,12.88,27.45,31.33-1.36,14.76-10.98,19.55-23.49,23.37-.69.21-2.25-.31-1.45,1.5.34.77,10.25,8.91,12.39,11.54,5,6.14,10.81,15.93,14.98,22.88,1.64,2.74,3.95,5.76,4.58,8.87h-22.47c-6.51-8.55-11.71-18.13-18.06-26.77-8.34-11.33-12.35-16.76-28.38-15.01v41.78h-19.97V26.69c17.49,1.23,37.2-1.66,54.43,0ZM470.77,69.47c12.11-1.07,42.73,5.15,41.88-14.28-.16-3.57-5.04-11.59-8.43-11.59h-33.46v25.86Z" fill="#002f3c"/>
      <path d="M643.55,112.74c-25.36,20.94-72.48,22.62-88.07-10.76-9.97-21.33-6.79-51.47,12.25-66.75,21.84-17.53,69.57-13.71,73.83,19.31l-18.36,2.91c-6.84-13.95-17.65-18.38-32.78-14.55-18.61,4.71-21.48,25.32-19.49,41.71,2.9,23.9,24.05,32.66,45.18,22.67,10.55-4.99,7.14-6.87,7.48-17.92h-22.97v-15.92h42.94v39.29Z" fill="#002f3c"/>
      <path d="M225.08,112.74c-29.78,24.4-82.48,21.05-91.59-22.18-9.03-42.87,20.33-73.91,63.82-63.57,14.34,3.41,23.46,13.39,26.76,27.55l-19.88,2.93c-6.24-21.58-38.98-20.38-48.21-1.61-4.57,9.3-4.77,22.8-2.54,32.73,5.66,25.17,32.23,28.45,51.15,14.69l.51-13.92h-22.97v-15.92h42.94v39.29Z" fill="#002f3c"/>
      <path d="M381.69,24.99c39.77-2.14,57.28,31.91,49.64,67.36-10.13,47.02-80.88,47.47-92.91,2.99-9.03-33.39,5.41-68.32,43.27-70.36ZM380.66,41.9c-34.66,4.07-33.39,74.18,8.6,69.23,32.63-3.84,33.88-74.22-8.6-69.23Z" fill="#002f3c"/>
      <path d="M319.96,26.69c.5.36-1,1.28-1,1.49v15.42h-53.93v21.39l1.5,1.49h49.44v15.92h-50.93v26.36l1.5,1.49h54.43v15.92h-74.9V26.69h73.91Z" fill="#002f3c"/>
      <path d="M694.48,126.17l38.06-99.35,20.4-.19,40.41,99.55h-20.97l-8.98-22.39-40-.03-7.95,22.42h-20.97ZM729.43,87.37h27.96l-13.49-36.81c-2.08-.43-1.38.84-1.93,2.01-5.26,11.01-8.18,23.42-12.54,34.81Z" fill="#002f3c"/>
      <rect x="663.52" y="26.69" width="19.97" height="99.47" fill="#002f3c"/>
      <path d="M295.49,154.02c15.16,1.66,21.23,16.12,9.82,26.7l-8.32,4.13c8.78,4.21,12.58,15.18,17.97,22.88l-12.78-.2c-6.45-8.58-11.02-24.28-24.17-22.67v22.88h-10.99v-53.72c9.09.72,19.55-.97,28.46,0ZM278.01,175.9h18.48c4.19,0,5.28-12.93-1-12.93h-17.48v12.93Z" fill="#002f3c"/>
      <path d="M717.95,154.02c14.91,1.63,20.8,15.06,10.45,26.32l-8.94,4.5c8.9,4.15,12.28,15.34,17.97,22.88l-12.78-.2c-6.45-8.58-11.02-24.28-24.17-22.67v22.88h-10.99v-53.72c9.09.72,19.55-.97,28.46,0ZM700.47,175.9h18.48c4.19,0,5.28-12.93-1-12.93h-17.48v12.93Z" fill="#002f3c"/>
      <path d="M545.31,202.41c-12.7,12.39-37.61,7.23-42.91-10.77-7.39-25.13,13.29-48.65,38.32-35.18,14.87,8,15.96,34.85,4.59,45.95ZM516.06,166.3c-7.01,7.73-5.77,29.68,5.6,33.02,27.81,8.18,27.77-45.03.2-36.69-1.4.42-4.85,2.62-5.8,3.67Z" fill="#002f3c"/>
      <path d="M242.71,159.34c14.52,12.85,9.68,46.78-13.14,49.4-22.92,2.63-33.53-13.82-30.22-35.08,3.11-19.97,28.98-27.04,43.36-14.32ZM221.82,162.22c-18.21,2.95-17.55,41.29,6.69,37.49,16.62-2.6,16.94-41.32-6.69-37.49Z" fill="#002f3c"/>
      <polygon points="368.9 154.02 368.9 162.97 339.93 162.97 339.93 175.9 366.9 175.9 366.9 183.86 339.93 183.86 339.93 198.78 369.9 198.78 369.9 207.74 328.95 207.74 328.95 155.51 330.45 154.02 368.9 154.02" fill="#002f3c"/>
      <path d="M608.59,168.94l-9.37.93c-1.88-.58-1.65-7.14-9.09-7.92-4.04-.43-10.28.04-11.33,4.74-1.1,7.37,14.42,8.08,19.52,10.01,17.56,6.64,14.76,28.93-2.44,31.8-14.12,2.36-27.21-2.33-29.22-17.66l9.86-.89c.65,14.34,28.23,12.32,22.57-.1-3.04-6.68-24.5-3.28-29.22-16.64-8.58-24.26,38.25-27.96,38.74-4.27Z" fill="#002f3c"/>
      <path d="M790.36,154.02v8.95h-28.96c.57,4.12-1.5,9.77,1.5,12.93h25.47v7.96h-25.47c-3.11,3.74-.84,10.21-1.5,14.92h29.96v8.95h-39.95v-53.72h38.95Z" fill="#002f3c"/>
      <path d="M637.55,154.02v37.3c0,.54,2.31,5.28,2.96,6,2.79,3.1,11.24,3.37,14.78,1.72,1.29-.6,4.23-4.94,4.23-5.73v-39.29h9.99v42.28c0,.39-2.04,4.69-2.54,5.43-7.17,10.48-32.2,9.56-37.64-2.21-.29-.62-1.76-5.88-1.76-6.21v-39.29h9.99Z" fill="#002f3c"/>
      <path d="M431.82,168.93l-9.32,1.9c-1.96-.61-2.83-7.31-9.39-8.62-16.55-3.32-19.2,15.86-15.81,27.68,3.8,13.23,22.9,11.78,24.54-2.05l9.98,3c-5.34,24.68-42.1,21.84-45.68-2.76-1.04-7.15-.57-16.13,2.7-22.66,8.81-17.56,38.04-16.48,42.98,3.5Z" fill="#002f3c"/>
      <polygon points="184.13 154.02 184.13 162.97 158.17 162.97 158.17 175.9 181.14 175.9 180.14 184.86 158.17 184.86 158.17 207.74 148.18 207.74 148.18 154.02 184.13 154.02" fill="#002f3c"/>
      <polygon points="459.78 154.02 459.78 198.78 487.74 198.78 486.75 207.74 449.79 207.74 449.79 154.02 459.78 154.02" fill="#002f3c"/>
    </g>
  </g>
</svg>